<svg width="27" height="26" viewBox="0 0 27 26" fill="none" xmlns="http://www.w3.org/2000/svg">
<path d="M8.94375 19.175C7.73708 19.175 6.75 20.1255 6.75 21.2876C6.75 22.4496 7.73708 23.4001 8.94375 23.4001C10.1504 23.4001 11.1376 22.4496 11.1376 21.2876C11.1375 20.1255 10.1504 19.175 8.94375 19.175ZM2.53125 2.60002V4.71252H4.725L8.67391 12.4151L7.0229 15.0026C6.85847 15.2667 6.74868 15.6365 6.74868 16.0063C6.74868 17.4206 7.75195 18.1188 9.1125 18.1188H21.9375V16.0876H9.38108C9.21665 16.0876 9.10686 15.9818 9.10686 15.8235C9.10686 15.7709 9.22324 15.5595 9.22324 15.5595L10.3192 13.8938H18.4906C19.3133 13.8938 20.0266 13.4715 20.4101 12.785L24.359 6.24434C24.4242 6.11937 24.4688 5.92716 24.4688 5.71626C24.4688 5.13502 23.9749 4.71257 23.3719 4.71257H7.13834L6.09609 2.60002H2.53125ZM19.7437 19.175C18.537 19.175 17.5499 20.1255 17.5499 21.2876C17.5499 22.4496 18.537 23.4001 19.7437 23.4001C20.9504 23.4001 21.9375 22.4495 21.9375 21.2875C21.9375 20.1255 20.9504 19.175 19.7437 19.175Z" fill="white"/>
</svg>
