<svg width="22" height="22" viewBox="0 0 22 22" fill="none" xmlns="http://www.w3.org/2000/svg">
<path d="M14.5023 13.1215H13.7503L13.468 12.8857C14.3614 11.8015 14.9256 10.4342 14.9256 8.87859C14.9255 5.48419 12.1987 2.75 8.81439 2.75C5.47645 2.75 2.75 5.48419 2.75 8.87859C2.75 12.273 5.47645 15.0071 8.86123 15.0071C10.3656 15.0071 11.7758 14.4414 12.8569 13.5459L13.1389 13.7816V14.5358L17.8398 19.25L19.25 17.8357L14.5023 13.1215ZM8.86123 13.1215C6.51075 13.1215 4.6304 11.2357 4.6304 8.87859C4.6304 6.52141 6.51075 4.63577 8.86123 4.63577C11.2116 4.63577 13.092 6.52141 13.092 8.87859C13.092 11.2357 11.2116 13.1215 8.86123 13.1215Z" fill="#878787"/>
</svg>
